<svg width="1920" height="1080" viewBox="0 0 1920 1080" xmlns="http://www.w3.org/2000/svg"><rect width="1920" height="1080" fill="#121212"/><path d="M 0,1080 C 0,1080 0,216 0,216 C 199.86666666666667,184.53333333333333 399.73333333333335,153.06666666666666 609,163 C 818.2666666666667,172.93333333333334 1036.9333333333332,224.26666666666668 1257,240 C 1477.0666666666668,255.73333333333332 1698.5333333333333,235.86666666666667 1920,216 C 1920,216 1920,1080 1920,1080 Z" fill="#000000" opacity="0.12"/><path d="M 0,1080 C 0,1080 0,432 0,432 C 110.80000000000001,403.3333333333333 221.60000000000002,374.66666666666663 430,389 C 638.4,403.33333333333337 944.4000000000001,460.6666666666667 1209,475 C 1473.6,489.3333333333333 1696.8,460.66666666666663 1920,432 C 1920,432 1920,1080 1920,1080 Z" fill="#000000" opacity="0.24"/><path d="M 0,1080 C 0,1080 0,648 0,648 C 105.46666666666664,681.0666666666666 210.93333333333328,714.1333333333333 420,726 C 629.0666666666667,737.8666666666667 941.7333333333336,728.5333333333333 1209,712 C 1476.2666666666664,695.4666666666667 1698.1333333333332,671.7333333333333 1920,648 C 1920,648 1920,1080 1920,1080 Z" fill="#000000" opacity="0.36"/><path d="M 0,1080 C 0,1080 0,864 0,864 C 87.19999999999993,882.2666666666667 174.39999999999986,900.5333333333334 422,912 C 669.6000000000001,923.4666666666666 1077.6000000000001,928.1333333333334 1354,919 C 1630.3999999999999,909.8666666666666 1775.1999999999998,886.9333333333333 1920,864 C 1920,864 1920,1080 1920,1080 Z" fill="#000000" opacity="0.48"/></svg>